<svg width="16" height="16" viewBox="0 0 16 16" fill="none" xmlns="http://www.w3.org/2000/svg">
    <path
        d="M14.2234 6.78153C10.79 3.34886 5.22405 3.34886 1.79138 6.78153C0.20605 8.36753 0.432716 10.3962 1.62938 11.5929C1.79938 11.7629 2.06072 11.8022 2.27338 11.6895L5.15338 10.1649C5.41938 10.0242 5.54472 9.71153 5.44938 9.4262L4.96138 7.96286C6.78338 6.66153 9.23072 6.66153 11.0527 7.96286L10.5434 9.8322C10.462 10.1315 10.616 10.4449 10.9027 10.5629L13.7574 11.7382C13.9641 11.8235 14.202 11.7755 14.36 11.6175C15.5547 10.4229 15.806 8.3642 14.2234 6.78153Z"
    />
</svg>