<svg width="16" height="16" viewBox="0 0 16 16" fill="none" xmlns="http://www.w3.org/2000/svg">
    <path
        d="M13.3334 13.3327C13.7001 13.3327 14.0139 13.2022 14.2747 12.9413C14.5356 12.6805 14.6663 12.3665 14.6667 11.9993V10.666C14.6667 10.4771 14.6027 10.3189 14.4747 10.1913C14.3467 10.0638 14.1885 9.99979 14.0001 9.99935C13.8116 9.9989 13.6532 10.0629 13.5247 10.1913C13.3963 10.3198 13.3325 10.478 13.3334 10.666V11.9993H2.66674V3.99935H13.3334V5.33268C13.3334 5.52157 13.3974 5.68002 13.5254 5.80802C13.6534 5.93602 13.8116 5.99979 14.0001 5.99935C14.1885 5.9989 14.3467 5.9349 14.4747 5.80735C14.6027 5.67979 14.6667 5.52157 14.6667 5.33268V3.99935C14.6667 3.63268 14.5361 3.3189 14.2747 3.05802C14.0134 2.79713 13.6996 2.66646 13.3334 2.66602H2.66674C2.30008 2.66602 1.98608 2.79668 1.72474 3.05802C1.46341 3.31935 1.33297 3.63313 1.33341 3.99935V11.9993C1.33341 12.366 1.46386 12.68 1.72474 12.9413C1.98563 13.2027 2.29963 13.3331 2.66674 13.3327H13.3334ZM10.7167 8.61601H5.68951C5.50063 8.61601 5.3424 8.55201 5.21485 8.42401C5.08729 8.29601 5.02329 8.13779 5.02285 7.94935C5.0224 7.7609 5.0864 7.60268 5.21485 7.47468C5.34329 7.34668 5.50151 7.28268 5.68951 7.28268H10.7167L9.80008 6.38268C9.66675 6.26046 9.60275 6.10779 9.60808 5.92468C9.61341 5.74157 9.67741 5.58313 9.80008 5.44935C9.93341 5.31601 10.0919 5.24668 10.2754 5.24135C10.459 5.23601 10.6172 5.29979 10.7501 5.43268L12.8001 7.48268C12.9334 7.61601 13.0001 7.77157 13.0001 7.94935C13.0001 8.12713 12.9334 8.28268 12.8001 8.41601L10.7501 10.466C10.6167 10.5993 10.4585 10.666 10.2754 10.666C10.0923 10.666 9.93386 10.5993 9.80008 10.466C9.67786 10.3327 9.61386 10.1745 9.60808 9.99135C9.6023 9.80824 9.6663 9.64979 9.80008 9.51602L10.7167 8.61601Z"
    />
</svg>