<svg width="16" height="16" viewBox="0 0 16 16" fill="none" xmlns="http://www.w3.org/2000/svg">
    <path
        d="M2.66659 13.3327C2.29992 13.3327 1.98614 13.2022 1.72525 12.9413C1.46437 12.6805 1.3337 12.3665 1.33325 11.9993V10.666C1.33325 10.4771 1.39725 10.3189 1.52525 10.1913C1.65325 10.0638 1.81148 9.99979 1.99992 9.99935C2.18837 9.9989 2.34681 10.0629 2.47525 10.1913C2.6037 10.3198 2.66748 10.478 2.66659 10.666V11.9993H13.3333V3.99935H2.66659V5.33268C2.66659 5.52157 2.60259 5.68002 2.47459 5.80802C2.34659 5.93602 2.18837 5.99979 1.99992 5.99935C1.81148 5.9989 1.65325 5.9349 1.52525 5.80735C1.39725 5.67979 1.33325 5.52157 1.33325 5.33268V3.99935C1.33325 3.63268 1.46392 3.3189 1.72525 3.05802C1.98659 2.79713 2.30037 2.66646 2.66659 2.66602H13.3333C13.6999 2.66602 14.0139 2.79668 14.2753 3.05802C14.5366 3.31935 14.667 3.63313 14.6666 3.99935V11.9993C14.6666 12.366 14.5361 12.68 14.2753 12.9413C14.0144 13.2027 13.7004 13.3331 13.3333 13.3327H2.66659ZM8.11659 8.66602H1.99992C1.81103 8.66602 1.65281 8.60202 1.52525 8.47402C1.3977 8.34602 1.3337 8.18779 1.33325 7.99935C1.33281 7.8109 1.39681 7.65268 1.52525 7.52468C1.6537 7.39668 1.81192 7.33268 1.99992 7.33268H8.11659L7.19992 6.43268C7.06659 6.31046 7.00259 6.15779 7.00792 5.97468C7.01325 5.79157 7.07726 5.63313 7.19992 5.49935C7.33326 5.36602 7.4917 5.29668 7.67525 5.29135C7.85881 5.28602 8.01703 5.34979 8.14992 5.48268L10.1999 7.53268C10.3333 7.66602 10.3999 7.82157 10.3999 7.99935C10.3999 8.17713 10.3333 8.33268 10.1999 8.46602L8.14992 10.516C8.01659 10.6493 7.85837 10.716 7.67525 10.716C7.49214 10.716 7.3337 10.6493 7.19992 10.516C7.0777 10.3827 7.0137 10.2245 7.00792 10.0413C7.00214 9.85824 7.06614 9.69979 7.19992 9.56602L8.11659 8.66602Z"
    />
</svg>