<svg width="16" height="16" viewBox="0 0 16 16" fill="none" xmlns="http://www.w3.org/2000/svg">
    <path
        d="M2.4582 8.00169C2.4582 4.93855 4.94172 2.45503 8.00487 2.45503C11.068 2.45503 13.5515 4.93855 13.5515 8.00169C13.5515 8.48217 13.5196 8.94463 13.4503 9.38836H12.1649C11.5104 9.38836 10.894 9.69689 10.5009 10.2204L9.13292 12.0438C8.80775 12.4779 8.72316 13.0464 8.90897 13.556C9.31457 14.6716 10.6999 15.3344 11.8057 14.5329C14.1332 12.8474 14.9382 10.5448 14.9382 8.00169C14.9382 4.17241 11.8341 1.06836 8.00487 1.06836C4.17559 1.06836 1.07153 4.17241 1.07153 8.00169C1.07153 10.5448 1.87649 12.8474 4.20401 14.5329C5.30988 15.3344 6.69516 14.6716 7.10076 13.556C7.28657 13.0464 7.20199 12.4779 6.87681 12.0438L5.50887 10.2204C5.11575 9.69689 4.49937 9.38836 3.84487 9.38836H2.55943C2.49009 8.94463 2.4582 8.48217 2.4582 8.00169Z"
    />
</svg>