<svg width="16" height="16" viewBox="0 0 16 16" fill="none" xmlns="http://www.w3.org/2000/svg">
    <g clip-path="url(#clip0_595_9241)">
        <mask id="mask0_595_9241" style="mask-type:luminance" maskUnits="userSpaceOnUse" x="-1"
            y="-2" width="19" height="19">
            <path d="M16 -0.00390625H0V15.9961H16V-0.00390625Z" fill="white" />
            <path
                d="M13.0258 0.0327458L0.115255 13.0384C0.115255 13.0384 -1.65793 14.9099 -0.288543 16.2863C1.20526 17.7877 2.99905 15.9034 2.99905 15.9034L15.9096 2.89777C15.9096 2.89777 18.2058 0.620803 16.7696 -0.753494C15.3432 -2.11847 13.0258 0.0327458 13.0258 0.0327458Z"
                fill="black" />
        </mask>
        <g mask="url(#mask0_595_9241)">
            <path
                d="M2.45332 7.99583C2.45332 4.93269 4.93684 2.44917 7.99998 2.44917C11.0631 2.44917 13.5467 4.93269 13.5467 7.99583C13.5467 8.47631 13.5148 8.93877 13.4454 9.3825H12.16C11.5055 9.3825 10.8891 9.69103 10.496 10.2145L9.12804 12.038C8.80286 12.472 8.71828 13.0405 8.90409 13.5501C9.30969 14.6657 10.695 15.3285 11.8008 14.527C14.1284 12.8415 14.9333 10.539 14.9333 7.99583C14.9333 4.16655 11.8293 1.0625 7.99998 1.0625C4.1707 1.0625 1.06665 4.16655 1.06665 7.99583C1.06665 10.539 1.87161 12.8415 4.19913 14.527C5.305 15.3285 6.69028 14.6657 7.09588 13.5501C7.28169 13.0405 7.1971 12.472 6.87193 12.038L5.50398 10.2145C5.11086 9.69103 4.49449 9.3825 3.83998 9.3825H2.55454C2.48521 8.93877 2.45332 8.47631 2.45332 7.99583Z"
            />
        </g>
        <path d="M1.3335 14.6654L14.6668 1.33203" stroke-width="1.33333"
            stroke-linecap="round" />
    </g>
    <defs>
        <clipPath id="clip0_595_9241">
            <rect width="16" height="16" fill="white" />
        </clipPath>
    </defs>
</svg>