<svg width="26" height="26" viewBox="0 0 26 26" fill="none" xmlns="http://www.w3.org/2000/svg">
    <path d="M14.995 17.9891H6.01709M19.9827 8.01367H11.0048"
        stroke-linecap="round" stroke-linejoin="round" />
    <path
        d="M17.9877 20.9813C19.6405 20.9813 20.9804 19.6415 20.9804 17.9887C20.9804 16.3359 19.6405 14.9961 17.9877 14.9961C16.335 14.9961 14.9951 16.3359 14.9951 17.9887C14.9951 19.6415 16.335 20.9813 17.9877 20.9813Z"
        stroke-linecap="round" stroke-linejoin="round" />
    <path
        d="M8.0124 11.0067C9.66518 11.0067 11.005 9.66689 11.005 8.01411C11.005 6.36133 9.66518 5.02148 8.0124 5.02148C6.35962 5.02148 5.01978 6.36133 5.01978 8.01411C5.01978 9.66689 6.35962 11.0067 8.0124 11.0067Z"
        stroke-linecap="round" stroke-linejoin="round" />
</svg>