<svg width="16" height="16" viewBox="0 0 16 16" fill="none" xmlns="http://www.w3.org/2000/svg">
    <path
        d="M10.6682 3.97331C10.6682 2.50064 9.47421 1.30664 8.00155 1.30664C6.52888 1.30664 5.33488 2.50064 5.33488 3.97331V6.61331C5.33488 8.08597 6.52888 9.27997 8.00155 9.27997C9.47421 9.27997 10.6682 8.08597 10.6682 6.61331V3.97331Z" />
    <path
        d="M12.6682 6.61133C12.6682 9.18866 10.5789 11.278 8.00155 11.278C5.42421 11.278 3.33488 9.18866 3.33488 6.61133"
        stroke-width="1.33333" stroke-linecap="round" />
    <path
        d="M8.66821 11.2786C8.66821 11.0946 8.51888 10.9453 8.33488 10.9453H7.66821C7.48421 10.9453 7.33488 11.0946 7.33488 11.2786V13.9453C7.33488 14.1293 7.48421 14.2786 7.66821 14.2786H8.33488C8.51888 14.2786 8.66821 14.1293 8.66821 13.9453V11.2786Z" />
    <path
        d="M6.00155 13.2793C5.63355 13.2793 5.33488 13.578 5.33488 13.946C5.33488 14.314 5.63355 14.6126 6.00155 14.6126H10.0015C10.3695 14.6126 10.6682 14.314 10.6682 13.946C10.6682 13.578 10.3695 13.2793 10.0015 13.2793H6.00155Z" />
</svg>