<svg width="16" height="16" viewBox="0 0 16 16" fill="none" xmlns="http://www.w3.org/2000/svg">
    <g clip-path="url(#clip0_595_9191)">
        <mask id="mask0_595_9191" style="mask-type:luminance" maskUnits="userSpaceOnUse" x="-1"
            y="-1" width="18" height="18">
            <path d="M16 -0.00195312H0V15.998H16V-0.00195312Z" fill="white" />
            <path
                d="M12.8326 0.340531L0.418627 12.846C0.418627 12.846 -1.28636 14.6455 0.0303602 15.969C1.46671 17.4126 3.19151 15.6008 3.19151 15.6008L15.6055 3.09536C15.6055 3.09536 17.8134 0.905971 16.4324 -0.415469C15.0609 -1.72795 12.8326 0.340531 12.8326 0.340531Z"
                fill="black" />
            <path d="M13.2802 5.46484H11.7869V7.43818H13.2802V5.46484Z" fill="white" />
        </mask>
        <g mask="url(#mask0_595_9191)">
            <path
                d="M10.6667 3.97331C10.6667 2.50064 9.47275 1.30664 8.00008 1.30664C6.52741 1.30664 5.33341 2.50064 5.33341 3.97331V6.61331C5.33341 8.08597 6.52741 9.27997 8.00008 9.27997C9.47275 9.27997 10.6667 8.08597 10.6667 6.61331V3.97331Z"
            />
            <path
                d="M12.6667 6.61328C12.6667 9.19061 10.5774 11.2799 8.00008 11.2799C5.42275 11.2799 3.33342 9.19061 3.33342 6.61328"
                stroke-width="1.33333" stroke-linecap="round" />
            <path
                d="M8.66675 11.2806C8.66675 11.0966 8.51741 10.9473 8.33341 10.9473H7.66675C7.48275 10.9473 7.33341 11.0966 7.33341 11.2806V13.9473C7.33341 14.1313 7.48275 14.2806 7.66675 14.2806H8.33341C8.51741 14.2806 8.66675 14.1313 8.66675 13.9473V11.2806Z"
            />
            <path
                d="M6.00008 13.2793C5.63208 13.2793 5.33341 13.578 5.33341 13.946C5.33341 14.314 5.63208 14.6126 6.00008 14.6126H10.0001C10.3681 14.6126 10.6667 14.314 10.6667 13.946C10.6667 13.578 10.3681 13.2793 10.0001 13.2793H6.00008Z"
            />
        </g>
        <path d="M1.33325 14.6654L14.6666 1.33203" stroke-width="1.33333"
            stroke-linecap="round" />
    </g>
    <defs>
        <clipPath id="clip0_595_9191">
            <rect width="16" height="16" fill="white" />
        </clipPath>
    </defs>
</svg>